<?xml version="1.0" encoding="utf-8"?>
<!-- Generator: Adobe Illustrator 16.0.0, SVG Export Plug-In . SVG Version: 6.00 Build 0)  -->
<svg version="1.2" baseProfile="tiny" id="Ebene_1" xmlns="http://www.w3.org/2000/svg" xmlns:xlink="http://www.w3.org/1999/xlink"
	 x="0px" y="0px" width="595.28px" height="841.89px" viewBox="0 0 595.28 841.89" xml:space="preserve">
<path fill="#eee" d="M183.706,127.374h-0.508l-0.532,0.467l-0.25,0.33l-0.216,0.965l0.04,0.525l0.216,0.667l0.681,0.979
	l0.824,0.278l0.216-0.636l0.042-0.464l0.195-0.505l-0.043-0.339l-0.349-0.23l-0.257-0.473l-0.113-0.492l0.094-0.491L183.706,127.374
	z M66.614,177.136l1.018,0.42l1.802-2.04l-0.297-0.473l-1.43-0.565l-1.173-0.021l-0.373,0.33l-0.274,0.124l-0.115,0.329l0.04,1.173
	L66.614,177.136z M360.629,139.72l1.039,0.069l0.963-0.812l-0.293-1.524l0.352-0.917h0.547l0.275,1.288l-0.452,1.925l0.06,0.762
	l0.786-0.022l0.699-1.038l1.927-5.733l-1.95-0.905l-2.672,0.884l-2.35,2.03l-0.969,2.509l1.004,0.863L360.629,139.72z
	 M369.227,129.951l0.857-1.78l3.001-2.754l1.093-1.571l-0.893,0.897l-4.411,2.119l-0.347,0.822l-0.023,0.271l0.37,1.996H369.227z
	 M179.69,76.547l-1.175,0.903l-0.411,1.794l0.67,1.605l0.841,0.75l1.446,0.021l1.839-1.06l1.513-2.387l0.525-2.719l-0.135-1.214
	l-4.168,1.781l-0.473,0.296L179.69,76.547z M93.77,167.961l3.013-1.216h0.178l0.094-0.121l-0.021-0.525l-7.36-0.162l-3.502,0.593
	l-2.954,1.753l2.596,0.729L93.77,167.961z M148.348,167.191l0.356,0.257l0.567,0.156l0.31-0.236l1.04-1.012l0.628-0.257h0.937
	l-1.369-0.985l-1.471-0.229l-1.27,0.565l-0.803,1.411v0.743l0.683-0.454L148.348,167.191z M131.372,159.48l1.16-0.062l2.741,0.628
	l0.68-0.073l0.628,0.114l-1.72-1.059l-0.979-0.298l-1.06-0.115l-1.35,0.156l-1.174,0.432l-0.275,0.69l1.254,0.915L131.372,159.48z
	 M77.616,169.798l-8.849,1.16l-2.389,1.187l13.723-1.565L77.616,169.798z M101.911,166.861l0.488-0.154l0.214-0.176l0.216-0.432
	l-0.838-0.668l-1.254-0.291l-1.315,0.216l-1.053,0.743l0.939-0.04L101.911,166.861z M105.844,166.193l1.9-0.094l0.157-1.923
	l2.213-0.526l4.716,0.135l0.176-0.102l0.176,0.027l0.079-0.122l-0.019-0.473l-1.31-0.796l-5.776,0.041l-1.997,0.075l-0.781,0.507
	l-0.338,1.254l0.216,1.47L105.844,166.193z M118.513,162.826l0.568-0.43l0.586-0.844l1.586,1.059l1.882-0.114l1.823-0.77
	l1.442-0.917h0.924v-0.762l-5.503-0.358l-2.719,0.609l-1.647,2.063l0.512,0.465H118.513z M162.427,57.535l0.176-0.116l0.173,0.021
	l0.122-0.12l-0.038-0.548l-1.411,0.533l-1.174,1.269l-1.881,3.562l1.293,1.768l1.214,2.229l1.525,1.374l2.212-0.783l0.876-0.769
	l-1.227-0.701l-3.232-6.114l0.64-0.862L162.427,57.535z M192.247,82.815l0.7,1.248l1.329,0.473l2.841-0.216l1.512-0.784l0.937-1.255
	l0.844-1.369l1.173-1.155l-0.081-0.627l0.04-0.494l0.135-0.323l0.296-0.141l-2.841-0.762l-2.542,0.134l-2.315,1.06l-2.029,1.978
	l0.505,0.526l0.312,0.667l-0.116,0.642L192.247,82.815z M474.26,71.141l-0.018-0.132l-0.023,0.289L474.26,71.141z M468.546,81.95
	l0.135-1.113l0.235-1.081l0.369-0.875l0.917-0.812l0.476-0.605l0.646-2.329l0.059-2.151l0.376-1.844l1.586-1.288v2.288h0.411v-1.544
	l0.247,0.04l0.205,0.23l0.035,0.143v-1.276l-0.417-0.647l-0.722-0.116l-0.905,0.04l-1.045,0.279l-0.476,0.781l-0.452,2.821
	l-2.009,7.34l-0.206,2.585v1.505h0.452L468.546,81.95z M512.913,119.326l0.787,1.248l2.655,2.778l0.569,1.709l-0.376,2.894
	l-1.744,3.63l-0.522,2.132l1.31,0.512l0.904-0.906l0.957-1.274l2.091-0.918l0.558-0.41l0.488,0.154l0.334,1.33l-0.188,0.729
	l-0.522,0.646l-0.481,0.917l-0.124,1.471l2.256-0.862l0.388-0.238l0.193-0.824l0.47-0.843l0.594-0.681l0.563-0.316v-0.797
	l-0.587-1.391l0.663-0.85l1.292-0.289l1.286,0.317l1.022,0.822l0.887,1.175l0.716,1.484l0.518,1.781l1.503-0.628l0.905,1.843
	l0.111,2.941l-0.822,2.699l0.517,1.432l-2.214-0.689l0.117-0.628l0.17-0.389l0.253-0.294l0.341-0.255l-2.631-0.021l-0.811,0.467
	l-1.022,1.809l0.07-1.742l0.535-2.16l-0.165-0.606l0.435-0.822l-1.15-0.487l-3.271-0.201l-0.159,2.847l2.408,4.56l-0.481,3.185
	l-0.61,0.649l-2.256,1.292l-2.079,0.446l-1.345,1.04l-0.846,0.318l1.198,1.624l2.272,0.703l4.111-0.083l3.724-0.997l1.891-1.094
	l1.516-1.721l1.093,0.784l1.45,0.195l7.336-0.843l-0.541-1.741l-1.133-1.39l0.616-0.195l0.534-0.377l1.11-2.954l-1.11-0.824
	l-11.417-12.521l-1.979-1.255l-2.442-0.944l-4.288-2.503l-1.703-1.746l-0.781-1.431l-1.31-3.617l-0.593-1.079l-1.21-0.505
	l-1.198,0.464l-1.016,1.06L512.913,119.326z M53.592,182.734l1.175,0.595l0.391-0.121l0.957-0.514l0.669-0.115l0.546,0.216
	l0.844,0.999l0.567,0.351l-0.454-1.059l-0.466-0.642l-0.552-0.391l-0.723-0.277v-0.689l1.194-0.291l2.254-0.978l1.449-0.214
	l-0.863-1.7l-2.427,0.189l-4.931,1.511l-0.763,0.587l0.248,1.274L53.592,182.734z M170.96,59.788l1.708-0.649l0.546,0.473
	l0.999,0.392l1.094,0.121l0.903-0.282l0.526-0.783l0.743-2.146l0.533-0.903v-0.762l-1.154-2l-1.47-0.923l-3.624-0.216l-2.173,0.204
	l-1.76,0.681l-1.47,1.429l-1.29,2.348l3.797,2.368L170.96,59.788z M157.92,53.702l0.41-0.349l0.339-1.533l0.173-2.017l-0.233-6.127
	l0.195-0.451l0.101-2.214l0.175-0.822l0.33-0.331l1.958-1.375l0.432-0.175l0.627-0.015l0.544,0.269l0.546,0.987l0.433,0.216h4.465
	l1.001-0.283l1.78-1.402l1.019-0.555l8.104,0.454l1.624-1.289l-14.153,0.721l-3.111-0.781l-2.192-2.097l0.373-3.992l-0.567-2.095
	l0.678-2.27l1.216-1.82l2.645-1.489l0.587-1.565l-0.526-1.372l-1.822-0.177l0.527-0.565l3.953-0.216l-3.089-1.664l-2.746,3.424
	l-4.894,13.822l-0.625,2.407l-0.762,12.197l0.06,2.954L157.92,53.702z M335.533,85.377l0.353,0.019l0.234,0.447l0.194,0.823h0.493
	l0.464-0.647l0.711-0.229l1.703,0.053l0.922,0.356l0.294,0.859l-0.124,2.273l0.723,0.924l1.721,0.27l2.607-0.156l-0.287-0.194
	l-0.282-0.452l1.175-0.683l8.163,1.362l-3.794-7.219l-1.01-1.874l-0.517-0.688l-1.668-1.43l-5.539-2.389l-3.13,0.526l-2.543,2.492
	l-1.82,4.5l0.17,1.549L335.533,85.377z M483.369,78.625l-0.276-0.809l-0.353-1.467l-0.763-0.565l-0.752-0.317l-0.347-0.661
	l-1.081-0.257l-4.974,0.741l-1.48,0.73h0.581l0.411,0.255l0.265,0.567l0.07,0.973l0.136,0.863l0.293,0.256l0.317,0.079l0.141,0.353
	l0.506,0.512l1.15-0.122l1.927-0.761l0.053,0.781L479.1,80.15l-0.212,0.173l-0.223,0.258l0.517,0.997l0.775,0.527l1.809,0.709
	l-0.411,0.505l-0.394,0.216l-0.082,0.021v0.763l-1.327,0.233l-1.956,1.059l-1.768,0.434l-0.487,0.58l-1.122,2.334l2.884-0.762
	l0.664,0.277l0.411,0.62l0.487,0.526l0.887,0.103v0.68l-0.317,1.162l0.335,1.091l0.764,0.729l1.039,0.135l-1.961,1.308l-0.882,0.176
	l-0.745-0.715l-0.446,0.743l-1.997-1.317l-1.627,0.749l-1.298,1.972l-0.875,2.387l4.017,3.095v0.683l-0.998-0.404l-0.863,0.331
	l-0.394,0.748l0.452,0.856l0.641-0.074l1.996-0.985l0.946,0.298l-0.37,1.402l0.698,0.964l1.157,0.567l0.939,0.157l0.411,0.334
	l0.611,0.649l0.646,0.445l0.559-0.31l0.493-0.411l0.669-0.143l1.311,0.143l-0.177-0.398l-0.275-0.31l0.393-0.568l0.435-0.432
	l0.952-0.568l-0.682,1.687l-0.329,1.31l-0.511,0.587l2.291,1.505l2.055,0.747l1.856,0.277l1.021-0.493l0.136-1.171l-0.482-2.532
	l-0.435-0.188l-3.101,0.546l0.105,0.1h0.177l0.129,0.149l-0.018,0.565l-0.881,0.749l0.259-2.96l1.421-0.743l1.592-0.331l0.751-1.706
	l0.734-1.148l3.43-3.037l1.151-0.741l6.487-0.768l0.722,0.43l0.506,0.729l0.558,0.25l0.875-1.018l0.628-0.473l0.905-0.074
	l1.738,0.156v0.768l-1.216,0.506l-3.583,2.522l1.292-0.884l1.492-0.464l3.389-0.236l-0.552,1.267l-0.999,0.809l-2.39,1.013v0.77
	l0.787,0.351h1.039l0.998-0.372l0.658-0.749h0.458l0.253,1.201l-0.253,0.742l-0.61,0.349h-0.764l1.433,0.488l0.658,0.081l0.199-0.7
	v-1.768l0.253-1.816l0.651-1.429l0.84-1.06l0.881-0.621l-1.608-0.608l-1.116-1.47l-1.703-3.171l-1.374-0.958l-3.066-0.749
	l-1.333-0.709l-0.663-0.998l-0.729-1.639l-0.588-1.956l-0.234-1.863l0.622-1.639l1.416-1.377l2.896-1.935l1.68-2.706l-0.429-2.875
	l-1.933-2.171l-2.913-0.647l-8.407,1.625l-2.725-0.924l-1.093-0.917l-0.863-1.235l-0.522-1.606l-0.224-1.976l0.505-1.584
	l1.198-1.038l1.333-0.785l1.005-0.803v-0.687l-1.709-0.918l-1.827,0.021l-8.897,2.584l-0.764,0.566l-0.716,0.742l-0.347,0.77
	l-0.041,1.295l0.411,0.135l0.957-0.668l2.901-0.762l0.199,0.473l-0.158,1.051l-0.271,1.059l-0.205,0.467l-0.91,0.85l-0.846,1.875
	l-0.452,2.051l0.217,1.334l1.315,0.414l1.175-0.885l1.093-1.214l1.532-0.916l1.034-1.451l0.505-0.529l0.863-0.721l0.158,0.445
	l0.74,1.12l0.435,0.783l0.212,0.743l0.417,0.525l0.975,0.236l0.628,0.358l0.447,0.781l0.357,0.782l0.329,0.351l2.238,0.135
	l0.692-0.135l0.476-0.391l0.411-0.595l0.508-0.484l0.822-0.054v0.7l-0.505,0.124l-0.27,0.188l-0.218,0.236l-0.379,0.276v0.762
	l0.508,0.642l0.358,0.789l0.505,1.566v0.824l-0.429,0.331l-0.305,0.471l-0.638,1.484l0.496,0.824l-3.351,0.081l-1.608-0.567
	l-1.287-1.863l0.411-1.687l-0.763-1.543l-1.163-1.452l-0.699-1.484l-0.887,0.824v0.762l0.558,0.176l0.623,0.506l0.546,0.162
	l-0.388,1.229l-0.575,0.708l-0.764,0.276l-0.939-0.06l0.61-1.646l0.329-0.506l-0.306-0.526l-0.299-0.257l-0.353-0.062h-0.429
	l0.563-0.627l0.493-0.977l0.723-2.274l-1.093,0.418l-1.209,0.93l-1.198,1.242l-0.923,1.288l0.529,1.74l-0.235,1.277L483.369,78.625z
	 M594.983,430.75l-0.235-0.329l0.335-2.995l-0.939-2.038l-1.475-1.723l-1.192-2.119l-0.193-0.699l-0.282-1.861v-0.095l-0.616-7.153
	l0.546-1.289l-0.669-1.43l-1.216-1.248l-0.999-0.807l-1.462-0.702l-3.054-0.904l-1.492-0.837v-0.023l-1.374-0.975l-4.217-1.427
	l-1.451-1.515l-0.358-1.835l0.535-2.023l1.274-1.997l0.764-2.091l-0.13-2.737l-0.622-2.648l-0.84-1.821l-3.154-2.62l-1.468-1.703
	l-0.664-2.666l-0.258-2.758l-0.899-1.218l-1.174-0.799l-1.058-1.647l-0.199-2.214l0.846-1.82l3.717-3.791l1.198-1.592l0.999-1.897
	l0.546-2.056l0.235-6.425l0.352-1.01l1.41-2.549l0.275-1.001l0.124-0.958l0.188-0.937l0.511-0.898l1.192-1.492l-4.229-3.178
	l-0.646-1.498l0.387-2.749l0.711-1.92l0.253-1.505l-0.939-1.464v-0.647l1.257-1.686l0.018-2.152l-0.999-1.854l-1.82-0.809
	l-1.839-0.433l-2.214-1.134l-1.444-1.619l0.388-1.943l-1.368-3.076l-1.527-4.615l-0.376-4.237l3.365-2.955l1.563-2.503l1.086-2.49
	l-0.317-1.131l-1.197-1.114l0.493-2.471l1.82-3.819l-2.015-1.667l-4.128-4.653l-3.9-1.553l-1.855-2.538l-1.233-0.591l-0.693-0.647
	l-2.208-4.384l-1.016-1.176l-6.89-5.086l-1.768-0.958l-2.138-2.511l-1.286-0.566l-1.445-0.119l-1.351-0.407l-1.146-0.903
	l-0.739-1.506l1.727-1.49l0.663-1.31l0.276-2.017l-0.135-1.355l-0.805-3.79l-0.388-1.101v-0.668l3.147-2.327l3.953-2.07l3.817-3.059
	l2.003-2.069l0.863-1.964l0.164-0.898l1.968-6.111l-0.142-1.546l-0.394-1.544l-0.234-1.738l0.176-1.461l0.464-1.306l0.652-0.958
	l0.688-0.372l0.47-0.722l1.703-3.333l-0.863-0.784l-0.253-0.606l-0.98-0.835l-0.411-0.686l-0.2-1.06l-0.035-1.978l-0.094-0.917
	l-1.803-8.368l-0.688-5.61l-1.351-2.315l-0.682-2.272l-1.562-2.43l-0.477-2.247l-0.064-2.428l0.177-3.973l-0.112-1.081l-1.351-4.244
	l-0.98-2.138l0.252-1.699l-0.076-3.058l-0.47,0.062l-1.039-0.135l-0.958-0.337l-0.805-0.473l2.937-2.13l0.077-0.054l0.528-0.811
	l-0.194-1.779l-0.293-0.291l-0.641-0.608l-1.039-0.214l-0.487,0.331l-0.77,1.531l-1.833,0.545l-5.209-0.391l-0.805-0.31
	l-1.609-0.986l-0.487-0.132l-1.568,0.132l-0.258-0.247l-1.034-1.317l-2.155-0.486l-4.774-4.014l-0.705,0.156l-1.057-0.937
	l-0.94-1.391l-0.411-1.195l-0.546-0.389l-1.216-0.3l-1.216-0.585l-0.563-1.348l0.664-1.411l4.663-3.84l0.716-1.019l0.411-1.254
	l-0.111-1.032l-0.805-0.453l-0.37-0.053l-0.411-0.163l-0.394-0.23l-0.328-0.296l-0.235-0.094l-0.928,0.094l-0.247-0.195l0.012-0.432
	l0.082-0.492l-0.059-0.394l-0.193-0.504l-0.2-0.824l-0.287-0.749l-0.452-0.31l-1.821-0.782l-0.394-0.271l-0.681-1.135l-1.886-2.414
	l-0.775-0.606l1.738-1.075l0.822-1.935l0.523-2.138l0.945-1.627v-0.762l-5.168-4.326l-1.962-1.018v-0.681l0.622-0.182l0.435-0.353
	l0.101-0.492l-0.271-0.567l-1.844,0.627l-3.33,2.254l-1.921,0.897l-8.025,1.593v0.756l0.546,0.492l0.723,1.254l0.555,0.506v0.768
	l-1.529-0.04l-1.198-0.783l-0.957-1.336l-0.822-1.618l-0.94-2.55l-0.364-0.546l-0.593-0.156l-0.411,0.351l-0.493,0.269l-0.764-0.464
	l0.505-0.454l0.317-0.511l0.511-1.31l-1.269-0.486l-2.407,1.229l-1.627,0.026l0.763-0.811l0.993-0.7l-1.732-1.565l-2.161-4.406
	l-1.662-0.897l-2.25-0.552l-3.389-1.917l-2.132,0.197l0.723-0.492l0.435-0.197l0.599-0.019v-0.797h-2.901l-0.716-0.398l-0.177-0.919
	v-1.213l-0.176-1.216l-1.862-2.995l-0.258-1.706l1.216-2.185l-0.758-0.743l-2.825-1.471l-0.764-1.079l-0.487-1.411l0.035-1.327
	l0.822-0.803l-1.639-0.494l-2.59,0.959l-2.584,1.686l-1.639,1.646l-0.587,1.092l-0.664,1.803l-0.569,0.904l-0.705,0.642
	l-0.664,0.201l-1.257-0.079l-0.669,0.132l-0.229,0.122l-0.234-0.201l-1.116-1.405l-0.394-0.728l-0.312-0.783l-0.176-0.876
	l-0.587,0.824l-0.623,0.525l-0.711,0.021l-0.745-0.668l-0.717,0.844l-0.734-0.333l-0.681-0.982l-0.57-1.054l-0.211,0.876
	l-0.294,0.743l-0.822,1.418l0.152-1.39l0.394-1.274l0.664-0.886l0.963-0.254v-0.825l-0.828-0.075l-0.799,0.103l-0.763,0.29
	l-0.658,0.508l0.111,0.389l0.171,0.824l0.158,0.377l-3.541,2.038l-1.938,0.486l-1.216-1.053v0.743l-0.528-0.42l-0.446-0.032
	l-1.198,0.452v0.762l0.417,0.094l0.857,0.67l-4.211,2.035l-1.093,0.919l-0.141,0.471l-0.053,1.389l-0.224,0.546l-0.275,0.195
	l-0.699,0.236l-0.394,0.251l-1.627,1.606l-0.604,0.944l-0.435,1.31l1.333,1.2l0.787,0.364l1.004-0.041l-1.392,0.863l-1.598-0.404
	l-2.808-1.982l0.723-0.865l-0.141-0.971l-0.553-1.203l-0.44-1.505l1.069-0.235l0.805-0.978l0.317-1.315l-0.411-1.323l0.429-0.768
	l0.47,0.411l0.37,0.175l0.939,0.182l-0.37-1.768l0.429-1.687l0.881-1.289l1.046-0.505l2.36,0.23l1.269,0.646l1.063,1.337
	l0.581-1.276l1.175-0.782l1.392-0.141l1.257,0.687l-0.023-0.486l0.1-0.141h0.183l0.211-0.075l-0.534-0.08l-0.399-0.135l-0.258-0.413
	l-0.124-0.963l0.411-0.116l0.57-0.494l0.334-0.216l0.411,0.825l0.411-1.484l0.611-0.353l1.68,0.332h1.339l0.37-0.291l0.675-1.026
	l0.518-0.208l1.697,0.236l2.777,1.038l6.954,0.606l1.662-0.355l1.609-1.505l-0.828-1.255l-1.868-0.452l-1.491,0.843l-2.438-1.175
	h-14.776l-2.796-1.16l-1.392-2.204h0.452v-0.709l-1.327,0.667l-0.752,0.978l-1.017,2.916l-2.684,4.662l-0.429,1.072l-3.899,5.667
	l-2.344,4.534l-0.963,1.16l-2.467,2.051l-4.893,2.684l-0.846,0.237l-0.898,0.609l-1.551,2.583l-1.31,1.194l-2.208,2.895
	l-0.511,1.038l0.628-0.404l0.664-0.298l0.711-0.121l0.716,0.081l-0.569,1.484l-1.855,1.059l-0.682,1.295l0.353,1.073l0.312,2.881
	l0.622,1.329l-1.504-1.781l-0.158-2.604l0.253-3.079l-0.329-3.17l-2.432,1.566l-15.47,3.332l-5.438-0.958l-2.525,0.35l-2.056,1.451
	l-1.603,2.896l-0.253,0.295l-0.282,0.394l-0.193,0.546v0.585l0.476,0.377l-0.041,0.567l-0.276,0.797l-0.335,0.708l-0.429,0.492
	l-0.528,0.176l-0.863,0.621l-1.175,2.919l-1.286,0.979l-0.569,0.022l-1.668-0.708v0.686h0.452v0.825l-2.214,2.252l0.117,0.526
	l0.158,1.229l0.124,0.512l-0.535,0.137l-0.646,0.49l-0.487,0.803l0.299,1.76l-0.499,2.213L364,145.401l-0.095,1.16h-0.733
	l-0.482-0.336l-2.489-3.151l-0.036-0.33h-2.707l-0.411-0.353l-0.664-1.571l-0.487-0.332l-2.625,2.255l-0.528,0.133l-1.938-0.133
	l-0.816-0.473l-0.141-1.154l0.276-2.503l-0.329-0.554l-2.32-0.646l-0.458-0.762l-0.417-1.567l-0.452-0.627l-0.563-0.216
	l-7.899,1.059l-3.465,1.856l-1.228,0.257l-1.058,0.41l-1.92,1.999l-0.816,0.667l-0.341,0.054l-1.005-0.054l-0.975-0.295l-0.234-1
	l-0.054-1.308l-0.476-1.16l-0.622-0.25l-2.502,0.25l-1.785-0.541l-1.251-1.059l-0.94-1.572l-0.863-2.145v-0.708l0.67-0.75
	l2.502-3.893l0.253-0.289l0.511-0.338l0.604,0.06l0.429,0.494l0.452,0.31l0.553-0.484l0.511,0.013l2.613-0.898l1.146-0.749
	l2.602-3.346l7.535-4.889l0.294-0.979l0.622-0.71l0.611-0.99l0.275-1.901l-0.411-3.192l-0.064-1.884l0.476-1.391l-0.517-2.117
	l-0.581-4.418l-0.705-1.8l0.998,0.43l0.37,0.311l0.688-1.081l2.414-2.699l-2.044-0.781l-4.54,2.797l-1.527-1.059l-1.115,0.379
	l-1.14-0.513l1.621-0.021l1.181-0.034v-0.77l-5.421,0.703l-2.232,0.944l-2.138,1.391l-3.718,3.466l-2.19,1.348l-2.954,0.546
	l-2.687-0.665l-5.776-5.459l-10.231-4.566l-3.941-3.146l-1.43-0.728l-2.761-0.236l-0.743,0.236l-0.608,0.608l-0.329,0.627
	l-0.432,0.608l-0.884,0.527l-2.449,0.255l-0.664,0.424l-0.449,0.946l-0.884,3.684l-1.524,3.459l-1.06,1.317l-1.421,0.526l0.64-1.053
	l0.235-1.038l-0.197-0.944l-0.678-0.741l0.402-0.743l-0.015-0.353l-0.217-0.173l-0.17-0.257l1.11-0.337l1.175-1l0.916-1.389
	l0.379-1.484l-0.338-1.781l-0.522-1.391l0.018-1.2l1.269-1.289l-3.912-3.447l-1.216-0.432l-15.657,3.737l-2.822-1.462v-0.742
	l2.74-0.318l2.798-0.918l2.604-1.471l2.091-1.935l0.822-1.194l0.628-1.296l0.452-1.565l0.312-1.977l0.394-4.635l-0.035-2.239
	l-0.358-1.524l0.47-1.587l-0.35-0.682l-0.749,0.056l-0.681,0.605l-0.999-1.309l-1.686,0.094l-1.7,0.515l-0.937-0.083l0.029-1.012
	l0.144-0.242l0.27,0.026l0.432-0.282l0.217-0.013l1.604-1.274l-0.038-0.238l0.608,0.162l0.781,0.372l0.884,0.094l0.825-0.627
	l-1.216-1.33l-0.587-0.856l-0.411-0.882l-0.884-3.84l-1.483-1.901l-2.12-1.289l-1.527,0.1l0.259,2.329l-2.963,1.132l-1.701,0.291
	l-0.74-1.032l-0.669-1.938l-1.545-1.117l-1.686-0.722l-1.133-0.863l-2.705-1.195l-3.997-0.214l-3.148-1.175l-0.197-4.048
	l-0.843,0.681l-0.816,1.492l-1.591,0.621l-1.228,1.551l-3.862,1.957l-0.978-0.021l-0.958,0.331l-1.098-0.135l-1.31-1.233
	l-1.175,0.274l-0.708,0.623l-0.94,0.276l-0.625,0.647l-0.98,0.174l-4.734-0.019l-1.139-0.445l-0.467-1.358l-0.197-1.564
	l-0.317-1.141l-1.072-0.958l-13.764-3.246l-5.114-2.097l-5.188-0.898l-1.505,0.236l-4.424,1.661l-2.391-0.115l-2.233-0.681
	l-0.881,3.264l-0.313,2.605l0.373,2.954l0.884,1.957l1.247,2.255l0.865,2.266l-0.372,2.036v0.77l2.194,1.094l3.521,3.076l1.86,1.188
	l0.845,1.55l2.253,6.086l-2.212,1.53l0.446,0.844l0.728-0.512l1.369-0.391l1.329-0.041l0.608,0.514l0.317,1.192l0.743,1.195
	l5.322,5.713l1.625,2.584v2.708l-0.432,1.8l-1.072,0.822l-2.533,1.229l-2.738,2.429l-1.369,0.865l-1.647,0.443h-7.124l-5.267,1.458
	l-1.391-0.633l-0.649,0.924l-0.586,1.152l-0.197,1.254l0.546,1.236l1.038-1.411l0.865,0.272l0.884,0.843l1.173,0.296v0.764
	l-1.551-0.097l-1.978,0.407l-1.78,0.808l-0.898,1.148l0.176,2.901l1.329,2.427l1.863,1.7l1.721,0.609l0.761-0.23l2.16-2.1
	l0.999-0.41l2.327,0.41l1.995-0.235l3.388-1.053l1.978-0.243l-0.135,0.377l-0.174,0.797l-0.143,0.355l1.391-0.606l2.447-2.138
	l1.471-0.291l-0.627,1.68l-1.019,1.749l-1.019,1.39l-0.668,0.546l-1.133,0.119l-2.738,0.797l-0.805,0.606v0.749l0.474,1.708
	l-0.688,1.74l-0.999,1.897l-0.505,2.233l0.175,0.525l1.154,2.49l1.759,3.097h0.452l1.154-1.317l2.113-1.038l2.271-0.41l1.587,0.49
	v0.681l-0.197,1.255l0.906,1.134l1.192,1.078l0.763,1.135v1.727l-0.349,2.348l-0.535,2.195l-0.506,1.191l-1.41,0.688l-1.389-0.473
	l-2.543-1.699l-1.553-0.46l-1.233,0.103l-2.483,1.154l5.364,10.908l2.149,2.699l2.296,1.746l1.505,0.508l0.687-1.113l0.742-0.492
	l1.646,0.453l2.481,1.152l8.246,0.195l2.428,0.567l2.449,1.484l4.108,3.568l2.349,0.938l0.1,2.172l1.04,3.562l1.503,3.295
	l1.586,1.442l0.958,0.339l3.06,1.725l0.667,0.582l0.247,1.922l0.185,2.975l0.764,3.481l2.132,2.417l4.681,3.048l2.388,0.945
	l5.817,0.661l2.44,1.43l0.802,1.43l-0.857,0.351l-7.932-1.781l-3.873-2.646l-0.802-0.391l-1.53-0.194l-1.216-0.549l-0.999-0.903
	l-4.44-6.572l-0.904-3.311l-0.878-1.154l-1.841-1.49l-2.584-3.072l-6.34-11.198l-1.43-1.901l-0.555-0.37l-2.211,0.113l-1.051-0.189
	l-0.904-0.674l-1.075,0.809l-5.154-0.059l-5.168,1.274l-1.212,1.43l-2.606-0.204l-4.716,1.175l-2.779,0.081l-5.073-1.269
	l-2.462-1.276l-2.293-1.961l-1.606-1.815l-0.762-0.331l-1.348-0.101l-1.471,0.332l-1.445,0.86l-1.274,1.215l-0.923,1.411
	l-1.094,2.934l-1.741,6.597l-2.408,6.086l-0.411,1.606l-0.135,1.85l0.194,1.815L172,175.26l0.472,2.08l0.566,1.637l0.664,1.473
	l0.491,0.639l1.687,4.271l0.33,0.531l-0.606,3.111l-1.37,1.317l-1.47,1.053l-1,2.367l-0.06,3.211l0.709,6.793l-0.197,2.667
	l-0.884-1.998l-0.391-2.664l-0.054-6.112l0.391-3.171l1.053-2.348l1.41-1.721l1.566-1.355v-0.797l-2.505-1.214l-5.538-1.091
	l-2.624-1.358l-0.782-1.06l-0.802-1.503l-0.959-1.329l-1.254-0.567l-2.708,0.134l-1.113,0.433l-0.844,0.917l-0.546,1.545
	l-0.471,3.717l-0.567,1.781l-0.114,1.591l1.368,0.229l2.546-0.682l1.881,2.214l-0.357,3.716l-1.445,3.738l-1.369,2.293l-0.804,0.783
	l-0.688,0.41l-0.803,0.178l-1.081,0.038l-0.935-0.462l-0.681-1l-0.533-1.04l-0.527-0.451l-0.453-0.317l-1.234-1.43l-0.761-0.433
	l-1.095-0.034l-0.748,0.317l-0.822,0.407l-0.878-0.937l-0.587-1.39l-1.193-3.624l1.154-0.729l2.543-0.21l1.175-0.605l1.411-1.06
	l0.604-1l0.197-1.976l-0.722-1.14l-1.432-0.403l-1.018-0.494l0.565-1.37v-0.689l-2.171-1.524l-2.699-3.44l-1.802-3.961l0.432-3.069
	v-0.811l-5.208-1.524l-19.483,2.738l-9.573,1.999l-1.525-0.366l-0.688-0.944l-0.702-0.487l-9.986,1.137l-5.133,1.995l-2.409,2.511
	l-1.247,0.876l-2.348,2.645l-2.098,1.443L80.2,181.52l0.137,1.432l0.841,0.884l1.897,0.959l0.566,0.762l0.122,1.387l-0.473,1.06
	l-0.628,0.331l-0.35,0.885l-2.604-0.576l-1.289-0.012l-0.532,0.977l-0.271,1.642l-1.254,3.29l-0.297,1.843l0.019,8.049l0.959,3.01
	l2.387,1.198l14.781,0.508l2.585,0.958l1.571,2.295l-1.254-0.494l-2.233-1.43l-1.391-0.352l-1.524,0.021l-0.862,0.454l-1.647,2.481
	l0.473,1.203l-0.216,1.288l-0.587,1.152l-0.567,0.786l-0.73,0.802l-0.642,0.356l0.156,3.029l0.062,1.747l-0.197,1.681l-0.451,1.853
	l-0.925,2.396l-0.154,0.858l0.06,1.295l0.237,0.69l0.31,0.565l0.257,0.935l0.587,7.711l-0.101,3.86l-0.586,3.429l-1.411,3.602
	l-5.324,8.401l-1.173,3.242l-0.548,3.593l-0.606,11.548l-0.473,3.759l-1.193,2.286l-2.307-0.724l-0.979-0.41l-3.19,0.473
	l-3.446-1.04l-6.168,0.094l-2.171,0.667l-2.295,1.669l0.546,1.111l-0.114,0.966l-0.317,0.876l0.021,0.879l0.473,0.686l2.111,1.822
	l-3.602,1.819l-1.051,0.097l0.781,1.667l0.236,1.894l0.094,1.882l0.389,1.587L56,302.656l1.721,0.843l5.134,0.719l3.365,1.289
	l1.822,0.297l1.7-0.122l1.625-0.462l0.608-0.589l0.414-0.7l0.389-0.203l3.954,6.439l0.918,2.722l-0.546,3.857l-1.308,3.035
	l-0.474,1.609l-0.041,1.937l0.588,2.251l0.554,0.999l-0.198,0.547l-2.879,1.765l-0.702,0.826l-1.53,2.461l-1.289,1.154l-2.78,1.214
	l-1.254,1.336l-1.452,2.931l-0.803,0.746l-4.211,0.464l-1.038,0.593l-1.113,1.157l-0.33,0.584l-0.532,1.351l-0.527,0.667
	l-0.783,0.394l-0.688,0.035l-0.565,0.279l-0.452,1.095l0.141,1.604l1.019,0.743l1.423,0.411l4.252,2.367l1.664,1.783l0.332,0.511
	l0.175,0.705l-0.074,1.292l-0.317,0.314l-0.505,0.091l-0.534,0.593l-1.483,2.684l-1.512,1.797l-1.742,0.96l-5.754,0.173
	l-6.459,2.214l-3.19,2.47l-1.081,0.473h-1.313l-4.168-1.233l0.53,2.364l-0.254,1.06l-2.449,0.669l-0.195-1.632l-1.056-0.608
	l-2.485-0.391l-0.297-0.353l-0.703-1.289l-0.471-0.449l-0.546-0.056l-2.019,0.426l-2.19-0.898l-2.097-1.686l-2.094-0.998
	l-2.191,1.215l0.802,0.605l2.426,2.549l0.862,1.368l-1.038-0.258l-1.528-0.394l-2.111-0.57l-2.645,0.711l-0.937,0.511l-1.335,0.996
	l-1.254,0.531l-2.662,0.464l-1.077,0.772l-0.216,0.937l1.468,1.133l0.862,2.038l-0.097,2.108l-1.449,1.433l-0.059,1.119l0.643,0.273
	l1.884-0.059l0.743,0.37l1.449,1.098l0.646,0.664l-0.862,2.96l1.487,1.903l4.386,1.915l-0.744,2.35l-0.351,1.492l0.273,1.274
	l4.327,5.949l2.604,3.034l0.469,3.397l0.314,1.885l-0.236,2.059l-0.489,2.211l-0.097,1.897l0.978,1.175l-0.373,0.922l-0.194,2.267
	l-0.355,1.295l-0.645,0.898l-1.641,1.154l-0.689,0.664l-3.324,6.15l-1.374,1.668l-0.646,1.151l-0.565,2.056l-0.179,2.32l0.452,1.896
	l1.529,0.84l3.229-2.215l1.487,0.512l-0.511,0.287l-1.487,1.217l1.37,1.273l-0.976,1.286l-3.702,2.026l-5.992,4.692l-0.879,0.999
	l-1.251,2.625l-0.782,0.881l-1.195,0.136l-0.865-0.799l-0.781-0.999l-0.901-0.511l-1.821,0.963l0.376,2.402l0.997,2.954l0.078,2.602
	l0.879-0.17l1.684-0.84l0.879-0.259l0.902,0.124l1.703,0.563l2.332-0.276L9.99,458.7l-0.408,0.852l-0.237,0.857l0.077,1.497
	l0.176,0.816l0.493,0.528l1.522,0.964l2.136,0.739l-0.138,0.411l-0.331,0.57l-0.119,0.669l0.547,2.108l-0.022,0.822l-0.407,1.063
	l-0.725,0.857l-1.451-0.117l-0.9,0.511l-0.567,1.01l0.057,0.887l0.138,0.94L9.5,475.92l-0.937,0.863l-0.978-0.235l0.273,1.31
	l0.489,0.84l0.643,0.458l0.432,0.623l-0.134,1.327l-0.019,0.018l-0.042,0.076l-0.057,0.105l-0.04,0.177v0.193l0.056,0.118
	l0.041,0.076l0.705,0.358l0.373,0.211l0.04,0.746v0.229l-0.235,1.081l0.157,0.552l0.097,0.312l0.86,0.094l2.565-0.722l1.078,0.117
	l1.252,1.233l0.724,1.109l3.211,4.922l0.022,0.018l-0.884,0.546l0.765,1.475l1.33,0.711l4.484,0.088l0.157,0.622l-0.333,0.676
	l-0.135,0.229l-0.725,0.904v0.37l-1.449,0.857l-1.252,1.039l-0.805,0.664l-1.194,1.861l0.019,0.023l1.057,1.351l-0.508,0.781
	l0.097,0.446v0.029l0.508,0.212l0.746,0.053h0.018l-0.507,0.881l0.372,0.335l0.135,0.135h0.021l0.158,0.382l0.392,0.793l0.351,0.276
	l0.159,0.141l0.194,0.018l0.449,0.018l1.879-0.587l0.313-0.095l0.119-0.1l0.041-0.035l0.153-0.064l0.139,0.064l0.157,0.135
	l0.997,0.465l2.8,0.651l1.175,0.07l-0.723,0.711l-0.041,0.217l-0.119,0.605l0.042,0.176l0.154,0.723l0.355,1.04l0.173,0.305
	l0.373,0.611l0.369,0.082h0.101l0.137,0.199l0.119,0.147v0.029l-0.021,0.323l-0.041,1.356l-0.427,2.272l-0.021,0.118l-0.449,1.351
	l0.076,1.216l2.251,3.917l0.139,1.403v0.023l-0.53,0.57l-0.271,0.27l-0.021,0.018l-1.705,0.288l-0.881-0.146l-0.489-0.177
	l-0.257-0.1l-0.721-0.064l-0.354,0.199l-0.511,0.288l-0.427,0.54l-0.216,0.271l-0.433,0.963l-0.138,1.034l0.297,0.898h-0.019
	l-1.173,1.074l-1.647,0.453l-1.152,0.334l-1.354,0.641l-0.449,0.693l-0.178,0.293l-1.133,0.799l-0.336,0.241l-0.662,0.852
	l-0.021,0.023l0.86,0.957l0.099,0.259l0.276,0.898l-0.04,1.14l-0.394,0.957l-0.137,0.076l-0.351,0.235l-1.292,0.1l-0.098,0.07
	l-0.452,0.282l-0.078,0.193l-0.04,0.135l-0.133,0.646l-0.08,0.493l-0.159,0.493l0.666,0.529l0.235,0.616v0.029l-0.056,0.171
	l-0.139,0.493l-0.586,0.687l-0.452,1.469l-0.31,1.392l-0.413,2.808l0.116,0.082l0.394-0.041l0.135,0.023l-0.232,0.335l-0.606,1.181
	l0.704,0.399L17,553.562l0.391,2.12l-0.175,1.115l0.273,0.822l1.138,1.703l0.976,2.825l0.511,0.875l0.705-1.38l1.116,1.814
	l2.135,5.127l1.016,1.034l2.192,0.98l0.941,0.605l0.314,0.552l0.643,1.738l0.082,0.335l0.505,0.041l0.982-0.594l0.565,0.03
	l1.098,0.698l1.876,1.762l1.098,0.705l1.135,0.312h3.114l1.997,0.587l0.254,0.018l0.333,0.353l-0.138,0.141l-0.021,0.864
	l-0.097,0.059l-0.295,2.167l-0.021,0.729l0.181,0.429l-0.021,0.393l-0.627,0.553l-0.059,0.898l0.157,0.822l0.313,0.723l0.452,0.604
	l-0.57-0.217l-0.293,0.164l-0.214,0.487l0.43,0.511l0.138,0.218l-4.781,3.089l-0.997,1.41l0.119,0.328l0.411,0.276l0.391,0.394
	l0.059,0.67l-0.176,0.446l-0.489,0.728l-0.646,1.346l-1.703,2.079l-0.978,1.538l-0.373,1.099v3.153l-0.547,4.193l0.216,3.007v0.734
	l0.544,0.053l0.686-0.135l1.233-0.84l0.53-0.199l0.724,0.117l5.954,2.978l1.114,1.074l0.394,0.822l0.173,0.822l0.022,0.57
	l-0.119,0.041l0.449,0.663l3.154,3.348l0.216,0.588l-0.292,0.805l-1.138,0.059l-0.372,0.904l0.411,1.146l1.098,1.339l4.302,4.146
	l0.102,0.435l-0.119,0.998l0.059,0.411l0.351,0.253l0.903,0.329l0.271,0.293l0.512,1.821l0.216,0.429l0.074,0.217l0.122,0.787
	l0.176,0.353l0.291-0.047l0.86-0.564h0.279l0.411,1.563l-0.338,1.263l-0.175,1.21l0.822,1.386l0.764,0.317l2.901,0.035l2.522,0.945
	l0.822-0.193l1.113-1.492l-0.228-1.644l-0.492-1.609l0.37-1.363l0.648-0.158l2.717,0.605l1.884-0.171l0.721,0.088l4.055,2.314
	l1.391,0.064l-0.021,3.5l0.74,2.708l1.432,1.133l1.997-1.257l0.101-0.511l-0.216-0.511l-0.041-0.546l0.587-0.588l0.351,0.035
	l2.49,1.81l1.018,0.546l1.019,0.329l5.6,0.059l1.74,0.828l0.413,0.059l0.372-0.394l0.687-1.415l0.404-0.487l0.595-0.194l1.308-0.17
	l0.495-0.218l0.331-0.552L97,641.668l0.31-0.493l1.079-0.61l1.525-0.464l1.255,0.117l0.27,1.099l2.819,0.193l1.173,0.429
	l0.433,1.434l-0.486,0.311l-0.163,0.218l-0.114,0.329l0.897,0.963l1.471,2.366l0.865,1.093l1.41,0.887l2.839,0.505l1.443,0.746
	l0.473,0.588l0.628,1.292l0.605,0.511l0.9,0.193l0.782-0.193l0.761-0.312l0.803-0.182l0.728,0.117l1.37,0.493l0.627,0.1l0.805-0.217
	l1.522-0.822l0.709-0.2l5.405,1.563l3.697-0.394l1.171,0.147l10.284,5.485l6.381,1.327l0.762,0.698l-1.368,1.574l-2.018,3.835
	l-2.954,8.105l-0.803,1.368l-0.392,0.335l-2.387,1.269l-0.574,0.041l-0.135,0.24l-0.291,0.288l-0.315,0.528l-0.137,0.929
	l-0.134,0.522l-0.378,0.335l-0.485,0.182l-1.841,0.012l-0.722,0.253l-0.358,0.863l-0.073,1.879l-0.296,0.781l-0.683,0.928
	l-0.865,0.84l-0.783,0.505l-1.759,2.109l-1,0.869l-1.076,0.352l-0.765,0.553l-2.74,4.258l-0.552,3.194v3.407l0.768,2.078v0.658
	l-1.624,1.298l-0.784,0.805l-0.336,0.881l-0.136,1.856l-0.31,0.939l-0.433,0.628l-0.449,0.935l-0.332,1.098l-0.473,2.584
	l-0.079,1.274l0.216,1.175l0.41,1.257l0.339,1.286l-0.081,1.369l-0.884,1.438l-1.195,0.64l-1.053,0.87l-0.452,2.025l-0.132,1.985
	l-0.414,1.639l-0.687,1.409l-4.09,5.756l-0.43,1.181l-0.141,1.403l-0.331,0.77l-0.432,0.587l-0.467,0.857l-0.432,1.492l-0.411,1.879
	l0.194,3.994l2.801,4.957l0.135,3.013l-0.608,1.151l-1.738,1.844l-0.333,1.286l0.077,1.568l-0.116,0.429l-0.411,0.98l-0.276,0.47
	l-0.432,0.411l-0.195,0.435l-0.054,0.394l0.021,0.253l0.054,0.229l-0.021,0.429l0.355,1.803l-0.16,1.08l-0.878,0.471l-0.351,0.47
	l-0.924,3.106l-0.176,1.356l0.801,3.371l-0.038,1.563l-0.372,0.646l-1.072,1.133l-0.239,0.588l0.178,2.062l0.216,1.039l0.25,0.446
	l0.965,0.487l0.876,1.233l1.471,2.919l0.392,0.487l0.411,0.376l0.33,0.481l0.141,0.923l-0.141,0.352l-0.27,0.964l3.305-0.981
	l1.473-0.158l-0.844,2.414l-0.708,0.657l-1.681-0.012l3.346,1.78l1.431,0.182l5.403-1.122l1.235-0.687l1.019-1.251l1.195-1.845
	l0.896,0.47l4.189,0.259l0.392,0.411l0.216,0.898l0.114,0.904l0.182,0.388h8.454l2.92-0.646l0.623-0.429l0.295-0.411l0.255-0.488
	l0.546-0.628l0.526-0.411l1.411-0.764l1.195-0.358l0.452-0.464l0.31-0.47l0.338-0.217l3.501-0.588l1.175-0.018l1.687,0.522
	l0.741,0.083l0.35,0.411l0.358,0.916l0.445,0.928l0.649,0.429l2.468,0.641l4.149,0.023l1.997-0.329l0.081-0.452l0.764-1.645
	l1.974-1.31l1.958-0.2l1,0.94l0.759,1.292l0.731,0.881l0.857-0.294l0.432-0.74l0.079-0.711l-0.04-0.681l0.079-0.664l-0.019-0.335
	l-0.154-0.375l-0.124-0.423l0.157-0.535l0.236-0.199l0.329-0.129l0.298-0.024l0.06,0.153l0.035,0.593l0.41,0.218l0.377-2.273
	l-0.586-0.064l-1.04-0.429l-0.904-0.152l-3.149,0.546l-0.978,0.493l-0.906,0.641l-0.958,0.493l-1.152,0.059l-1.33-0.77l-1.667-1.269
	l-0.331-0.059l-1.019-0.37l0.413-1.039l-0.156-0.828l-0.276-0.699l0.08-0.705l0.621-0.722l1.646-0.898l0.708-0.652l0.487-1.944
	l0.296-0.698l0.878-1.292l0.511-0.294l0.722,0.023l3.489-0.711l0.997-0.481l-0.606-1.532l1.019-0.588l1.618,0.1l1.195,0.529
	l0.122,0.704l0.06,1.251l0.216,1.181l0.64,0.464l0.805-0.528l0.335-2.097l0.588-0.623l0.837,0.271l0.625,0.963l0.514,1.122
	l0.487,0.758l0.665,0.158l0.724-0.158l0.628,0.117l0.432,0.975l-0.178,0.382l-0.863,1.286l-0.214,0.629l0.276,0.781l0.507,0.646
	l0.18,0.723l0.115,0.629l3.428-0.042l-0.533-0.604l0.587-1.879l1.746,0.076l2.113,1.233l1.687,1.585l-1.194,0.276v0.682l0.978,0.969
	l1.875,1.403l1.585,0.411l2.549-0.229l2.37-0.775l1.018-1.11l1.235-0.493l7.238,0.828h3.583l0.887,1.368h2.426l2.525,0.588
	l17.951,11.182l4.073,1.116l4.17-0.082l1.762-0.834l0.94-1.475l0.801-1.738l1.43-1.645l0.946-0.499l0.957-0.111l0.917,0.329
	l0.763,0.822l0.214,1.133l-0.114,1.181l0.238,1.011l1.327,0.669l0.508-0.035l0.802-0.511l0.337-0.082l1.956,0.733l1.915,0.13
	l0.98-0.194l0.805-0.622l0.17,1.58l0.669,0.904l0.822,0.828l0.587,1.269v0.293l0.023,0.288l0.1,0.569l0.723,0.411l0.564-0.234
	l0.569-0.505l0.74-0.335l3.192,4.675l0.573,1.122l-0.294,0.998l-1.486,1.157l0.723,0.816l0.152,0.998l0.083,1.046l0.329,0.893
	l0.649,0.604l0.432-0.018l0.487-0.353l0.863-0.411l0.311,0.047l0.664,0.405h0.352l0.279-0.211l0.76-0.846l2.86-0.528l1.192,0.64
	l-0.059,1.727l-1.174,3.53l0.155,0.622l0.042,0.588L281.636,822l-0.314,0.312l-0.857,0.252l-0.258,0.177l-0.587,1.08l-0.276,0.605
	l0.296,0.158l5.148-0.628l1.433-0.547l2.889-1.779l1.277-1.157l1.154-1.567l1.451-2.896l0.391-0.611l0.669-0.452l1.368-0.481
	l0.567-0.376l1.078-1.427l0.94-1.944l0.584-2.149v-2.038l-0.273-1.198l-0.352-0.834l-0.546-0.628l-0.922-0.487l0.667-3.817
	l0.079-0.881l-0.435-1.081l-0.564-1.058l-0.1-0.84l0.978-0.375l1.078-0.194l0.505-0.199l0.217,0.182l0.299,0.898l-0.082,0.37
	l-0.314,0.452l-0.235,0.629l0.097,0.822l0.358,0.423l0.525,0.381l1.02,0.471l2.757,0.429l0.767-0.136l0.819-0.669l1.313-1.839
	l0.898-0.634l1.565,0.023l8.577,3.254l0.253,0.293l0.217,0.487l0.335,0.477l0.553,0.152l1.914-0.235l2.625-1.197l0.917-0.253
	l0.904,0.059l0.681,0.394l1.492,1.116l-0.546,0.657l-2.097,1.439l0.446,0.733l3.348,1.58l3.235,3.477l0.194,0.436l0.018,0.64
	l-0.142,0.67l-0.211,0.429l-0.164,0.018l0.675,1.298l0.898,0.528l6.778,0.1l1.268-0.394l4.229-2.942l1.644-0.446l1.398,0.57
	l-0.147,2.602l1.557,0.176l1.428-0.646l0.916-0.999l0.863-1.156l1.251-1.151l1.21-0.399l2.801-0.053l1.063-0.452l0.563-0.958
	l-0.258-0.71l-0.705-0.458l-0.799-0.218l3.054-3.535l1.486-0.347l1.586,0.234l1.474,0.452l3.054-0.517l1.41-0.54l1.175-1.31
	l0.328-0.887l0.506-2.232l0.458-1.021l1.797-1.563l0.234-0.27l1.192,0.035l2.843,0.563l5.28,0.023l3.646,0.752l0.688-0.218
	l0.641-1.626l0.728-0.453l5.45-1.092l14.912,0.64l0.522-0.111l1.844-2.373l0.235-0.604l0.076-0.904l-0.111-2.566l-0.183-0.523
	l-0.322-0.234l-0.541-0.528l-0.464-0.629l-0.211-0.534l-0.13-0.775l1.022-0.417l1.568-1.31l0.569-0.347l0.939-0.417l0.153-0.041
	l-0.194,0.458l-0.17,1.017l-0.224,0.763l-0.429,0.564l-0.217,0.687l0.37,1.052l0.651,0.569l0.688-0.094l1.462-0.764l1.41-0.193
	l3.741,0.787l1.115-0.183l2.543-0.975l1.063,0.217l0.312,0.547l0.663,2.056l0.353,0.78l0.522,0.623l1.944,1.574l0.898,0.423
	l1.356,0.041l1.368-0.247l1.005-0.458l2.896-2.584l1.233-0.623l2.302-0.546h2.332l3.641,0.934l1.099-0.152l-0.67,1.68l1.022,1.251
	l1.686,1.116l1.286,1.233l-1.762,0.887l-0.799,2.231l0.347,2.367l1.608,1.286l0.999,0.164l0.61,0.229l0.547,0.429l2.96,3.276
	l3.188,2.385l0.705,0.288l0.546-0.171l0.553-0.293l0.657-0.018l0.629,0.328l0.37,0.37l0.393,0.259l0.705-0.041l0.452-0.394
	l1.839-2.185l-0.012-0.805l-0.165-0.57l-0.211-0.505l-0.142-0.511l-0.064-0.61v-1.668l0.171-0.241l0.622-1.551l0.053-0.141
	l-0.129,0.059l-0.064-2.19l0.176,0.07l1.058-1.362l0.047-0.276l0.758-1.896l0.176-0.218l0.135-1.157l0.041-1.174l-0.176-1.233
	l-0.522-1.393l-1.274-2.173l-0.787-0.951l-0.822-0.611l-0.999-0.152l-1.644,0.723l-0.981,0.152l-3.6-0.664l-1.058-1.074l1.198-1.861
	l0.018-0.023l0.411-0.682l0.117-0.646l0.023-0.61l0.13-0.605l0.352-0.763l4.193-6.713l-0.311-0.317l-1.393-2.091l-2.214-5.092
	l-1.098-1.081l-0.506-0.288l-1.31-1.351l-1.568-0.922l-0.528-0.77l-0.335-1.016l-0.193-1.169l-0.975-2.173l-4.569-4.781l-0.6-0.957
	l-0.599-1.151l-0.306-1.298l0.111-1.286l0.394-0.71l0.429-0.136l0.411,0.023l0.394-0.176l0.946-1.451l0.252-0.34l2.584-1.798
	l0.84-0.98l1.192-1.873l0.588-0.652l0.975-0.499l3.605-0.711l-0.094-0.234l1.022-0.805l2.067-1.175l2.431-2.332l1.04-0.733
	l6.73-2.673l8.944-1.563l2.185-1.215l6.338-5.563l0.922-1.503l0.347-2.079l0.141-0.487l0.294-0.506l0.293-0.669l0.136-1.022
	l-0.136-2.754l0.136-0.898l0.299-0.904l0.875-1.862l0.177-0.934l-0.136-0.863l-0.61-0.939l-0.253-1.774l-0.193-0.44l-0.035-0.353
	l0.353-0.687l0.581-0.522l2.108-0.805l2.182-0.288l6.742,1.867l1.134,0.611l1.052,0.787l0.98,1.521l2.66,1.216l0.142,0.136
	l0.587-2.608l0.546-1.109l0.218,0.059l1.345-0.218l0.517-0.234l0.547-0.522l0.311-0.477l1.099-2.407l0.405-1.269l0.205-1.434
	l0.054-1.645l-0.353-3.153l0.17-1.181l0.863-0.816l-0.799-0.394l-0.329-0.288l-0.692-1.374l-0.329,0.123l0.141-0.928l1.933-4.088
	l-1.269-1.31l-3.131-6.249l-1.515-2.372l-0.898-0.505l-2.426-0.376l-1.21-0.582l-1.122-1.098l-1.016-1.545l-0.688-1.779
	l-0.152-1.862l-1.192,0.118l-1.104-0.605l-1.093-0.881l-1.163-0.687l-1.479-0.335l-0.905,0.411l-0.607,1.098l-0.664,1.727
	l-1.532-0.751l-2.05-1.463l-1.856-1.75l-0.939-1.504l-0.047-2.777l-0.717-1.721l-2.748-2.802l-1.979-2.643l-0.799-0.688
	l-1.286-0.487l-3.946-0.194l-1.833-1.08l-1.016-1.65l-0.863-1.956l-6.073-8.257l-0.804-0.453h-0.013v-0.018l-2.078-2.472l-0.3-0.917
	l-0.088-0.957l-0.353-0.805l-1.146-0.47l-1.82-1.938l-0.935-0.763l-1.098-0.588l-2.484-0.681l-0.881,0.293l0.276,1.269l-1.222,0.177
	l-3.817-0.57l-1.287-0.47l-1.021-1.057l-2.126-4.758l-1.321-1.351l-2.972-1.403l-1.274-1.058l-0.74-1.45l-0.312-1.609l-0.193-3.266
	l-0.082-1.686l-0.494-0.394l-0.681,0.101l-0.723-0.218l-0.711-0.746l-0.505-0.74l-0.417-0.904l-0.429-1.186l-0.252-1.181
	l-0.288-2.209l-0.476-1.08l-0.688-0.74l-1.545-0.863l-0.663-0.799l0.053-0.258l0.3-0.781l-0.512-0.253l-0.158-0.123l0.546-1.233
	l-0.053-1.327l-0.534-1.063l-0.898-0.464l-2.149-1.039l-0.999-0.67l-0.945-0.84l-1.333-1.938l-0.682-1.274l-0.312-1.051l0.764-1.51
	l2.685-1.156l1.027-1.04l0.206-1.645l0.035-2.108l0.388-1.415l1.315,0.411l0.47-1.563l1.509-2.767l0.506-1.526l0.217-1.956
	l-0.411-0.729l-0.922-0.364l-2.66-1.556l0.076-1.093l0.452-1.345l-0.176-1.469l-1.099-1.063l-2.385-0.235l-0.98-0.98h-0.076
	l-9.809-5.262l-0.223-0.646l-0.012-0.898l-0.142-1.034l-0.563-0.998l-0.939-0.828l-1.04-0.587l-0.916-0.84l-0.569-1.521
	l-0.035-1.516l0.44-2.302l-0.171-1.516l-0.511-1.216l-0.729-1.115l-1.579-1.756l-3.213-2.003l-0.663-1.198l0.804-1.228l0.676-0.429
	l0.435-0.476l0.123-1.31l-0.234-1.428l-0.534-0.904l-1.504-1.568l4.751,0.353l1.257,0.887l0.37,0.935l-0.023,1.738l0.265,0.793
	l0.716,0.64l0.964,0.3l1.861,0.041l0.47,0.253l0.218,0.363l-0.041,0.477l-0.3,0.563l-0.088,0.029l-0.088,0.012l-0.089,0.059
	l-0.082,0.076l-0.176,0.2l-0.064,0.193l0.064,0.241l0.176,0.229l1.134,1.134l0.27,0.394l0.282,0.646l0.111,0.593l0.065,0.528
	l0.78,2.778l0.664,1.039l1.093,0.136l0.898-0.664v-0.904l-0.37-1.081l-0.194-1.251l0.218-1.797l0.335-0.945l1.292-1.645l0.17-1.604
	l0.534-0.799l0.729-0.511l0.717-0.764l2.021-3.665l0.704-0.675l1.892-1.081l0.787-0.687l0.234-0.142l0.57,0.023l0.275-0.135
	l0.136-0.376l-0.041-0.405l-0.095-0.341v-0.217l0.177-0.446l0.129-0.523l0.224-0.493l0.487-0.435l1.803-1.526l2.607-0.787
	l4.852-0.347l3.482,0.628l0.846-0.105l0.723-0.698l1.427-2.215l0.846-0.822l1.052-0.388l1.039-0.059l1.157,0.159l0.411-0.159
	l0.904-0.604l0.582-0.123l0.546,0.164l6.014,3.653l2.214,0.141l1.933-1.921l0.928-1.08l0.429-1.851l0.429-4.152l0.529-0.375
	l0.546-0.136l0.528,0.124l0.511,0.357l0.57,0.183l0.604,0.059l0.611-0.059l0.581-0.153l0.023-0.029l1.844-0.616l3.407,0.193
	l1.603-1.191l0.94-1.686l2.149-5.779l1.257,0.123l1.057,0.74l1.069,0.476l1.374-0.693l0.688-2.073l0.37-0.646l2.431-1.721
	l0.394-0.429l0.041-0.376l0.171-0.117l0.805,0.293l0.353,0.388l0.898,1.533l0.429,0.546l1.45,0.705l1.216-0.294l1.093-0.998
	l1.139-1.41l0.646-0.37l0.376-0.476l0.053-0.622l-0.37-0.828l1.084-0.793l0.875-1.14l0.252-1.368l-0.757-1.568l2.66-1.604
	l2.937-0.558l5.832,0.029l1.251-0.234l2.473-0.923l1.409-0.141l2.972,0.341l1.175-0.253l1.885-1.162l0.388-0.019l0.37-0.141
	l0.452-0.622l0.023-0.547l-0.158-0.71l-0.082-0.881l0.275-0.993l0.605-0.728l0.552-0.019l0.629,0.2l0.816-0.141l0.663-0.494
	l1.005-1.269l0.687-0.487l1.269-0.275l2.367,0.293l1.257-0.076l10.119-4.646l0.787-0.74l1.192-1.803l0.704-0.682l2.326-0.487
	l5.092,0.388l1.921-1.604l0.369-2.566l-1.721-0.998l-2.39-0.711l-1.662-1.645l0.059-1.074l0.546-0.37l0.105-0.218l-1.298-0.522
	l-2.196-0.3l-0.758-0.487l0.717-1.057l0.928-2.96l1.563-1.574l2.062-0.347l2.408,0.811l0.487,0.446l0.347,0.569l0.435,0.564
	l0.704,0.382l0.705,0.012l1.82-0.799l2.35,0.135l0.752-0.388l0.563-1.427l0.376,0.875l0.129,0.628l0.235,0.605l0.604,0.84
	l0.805,0.569l1.744,0.429l0.799,0.629l0.787,0.957l0.511,0.828l0.194,0.992l-0.118,1.551l-0.505,1.233l-0.787,1.462l-0.352,1.257
	l0.745,0.594l3.577-1.492l0.787,0.023l0.353,1.151l-0.376,1.368l-1.093,2.584l-0.234,1.845l0.316,0.758l2.25,0.628l0.934,0.528
	l2.49,1.88l2.414,0.534l1.403,0.053l1.033-0.27l0.629-0.729l0.628-1.192l1.017-2.761l0.023-1.902l0.904-1.504l2.308-2.584
	l3.283-7.793l2.901-7.348l0.194-1.175v-1.99l0.117-0.999l0.358-0.729l0.505-0.464l0.435-0.687l0.111-1.334l0.077-2.607l0.528-2.895
	l0.887-2.761l1.11-2.185L594.983,430.75z"/>
</svg>
